# xmcd
#
# Track frame offsets:
#	150
#	17623
#	41663
#	56990
#	73675
#	85076
#	113287
#	130362
#	142596
#	152739
#	176313
#
# Disc length: 2566 seconds
#
# Revision: 0
# Processed by: cddbd v1.5.2PL0 Copyright (c) Steve Scherf et al.
# Submitted via: EasyCDDAExtractor 10.0.2.1
#
DISCID=850a040b
DTITLE=Bryan Ferry - Dylanesque
DYEAR=2007
DGENRE=Folk-Rock
TTITLE0=Just Like Tom Thumb's Blues
TTITLE1=Simple Twist Of Fate
TTITLE2=Make You Feel My Love
TTITLE3=The Times They Are A-Changin'
TTITLE4=All I Really Want To Do
TTITLE5=Knockin' On Heaven's Door
TTITLE6=Positively 4th Street
TTITLE7=If Not For You
TTITLE8=Baby, Let Me Follow You Down
TTITLE9=Gates Of Eden
TTITLE10=All Along The Watchtower
EXTD=
EXTT0=
EXTT1=
EXTT2=
EXTT3=
EXTT4=
EXTT5=
EXTT6=
EXTT7=
EXTT8=
EXTT9=
EXTT10=
PLAYORDER=
